<svg id="f.mask" xmlns="http://www.w3.org/2000/svg" viewBox="0 0 283.46 283.46"><defs><style>.cls-1{fill:gray;}</style></defs><title>Artboard 1</title><polygon class="cls-1" points="50.02 93.1 40.66 93.1 45.34 101.2 50.02 109.31 59.38 109.31 68.73 109.31 64.06 101.2 59.38 93.1 50.02 93.1"/><polygon class="cls-1" points="78.09 76.89 68.73 76.89 73.42 84.99 78.09 93.1 87.45 93.1 96.81 93.1 92.14 84.99 87.45 76.89 78.09 76.89"/><polygon class="cls-1" points="50.02 60.67 40.66 60.67 45.34 68.78 50.02 76.89 59.38 76.89 68.73 76.89 64.06 68.78 59.38 60.67 50.02 60.67"/><polygon class="cls-1" points="78.09 141.73 68.73 141.73 73.42 149.84 78.09 157.94 87.45 157.94 96.81 157.94 92.14 149.84 87.45 141.73 78.09 141.73"/><polygon class="cls-1" points="106.17 125.52 96.81 125.52 101.5 133.63 106.17 141.73 115.53 141.73 124.89 141.73 120.22 133.63 115.53 125.52 106.17 125.52"/><polygon class="cls-1" points="78.09 109.31 68.73 109.31 73.42 117.41 78.09 125.52 87.45 125.52 96.81 125.52 92.14 117.41 87.45 109.31 78.09 109.31"/><polygon class="cls-1" points="21.93 141.34 12.57 141.34 17.25 149.44 21.93 157.55 31.3 157.55 40.66 157.55 35.98 149.44 31.3 141.34 21.93 141.34"/><polygon class="cls-1" points="50.02 125.52 40.66 125.52 45.34 133.63 50.02 141.73 59.38 141.73 68.73 141.73 64.06 133.63 59.38 125.52 50.02 125.52"/><polygon class="cls-1" points="21.93 108.91 12.57 108.91 17.25 117.02 21.93 125.13 31.3 125.13 40.66 125.13 35.98 117.02 31.3 108.91 21.93 108.91"/><polygon class="cls-1" points="50.02 190.37 40.66 190.37 45.34 198.47 50.02 206.58 59.38 206.58 68.73 206.58 64.06 198.47 59.38 190.37 50.02 190.37"/><polygon class="cls-1" points="78.09 174.16 68.73 174.16 73.42 182.26 78.09 190.37 87.45 190.37 96.81 190.37 92.14 182.26 87.45 174.16 78.09 174.16"/><polygon class="cls-1" points="50.02 157.94 40.66 157.94 45.34 166.05 50.02 174.16 59.38 174.16 68.73 174.16 64.06 166.05 59.38 157.94 50.02 157.94"/><polygon class="cls-1" points="106.17 93.1 96.81 93.1 101.5 101.2 106.17 109.31 115.53 109.31 124.89 109.31 120.22 101.2 115.53 93.1 106.17 93.1"/><polygon class="cls-1" points="134.25 109.31 124.89 109.31 129.57 117.42 134.25 125.52 143.62 125.52 152.97 125.52 148.29 117.42 143.62 109.31 134.25 109.31"/><polygon class="cls-1" points="21.93 76.49 12.57 76.49 17.25 84.59 21.93 92.7 31.3 92.7 40.66 92.7 35.98 84.59 31.3 76.49 21.93 76.49"/><polygon class="cls-1" points="21.93 173.76 12.57 173.76 17.25 181.87 21.93 189.97 31.3 189.97 40.66 189.97 35.98 181.87 31.3 173.76 21.93 173.76"/><polygon class="cls-1" points="21.93 206.18 12.57 206.18 17.25 214.29 21.93 222.4 31.3 222.4 40.66 222.4 35.98 214.29 31.3 206.18 21.93 206.18"/><polygon class="cls-1" points="21.93 44.06 12.57 44.06 17.25 52.17 21.93 60.28 31.3 60.28 40.66 60.28 35.98 52.17 31.3 44.06 21.93 44.06"/></svg>