G04 #@! TF.GenerationSoftware,KiCad,Pcbnew,(5.0.2)-1*
G04 #@! TF.CreationDate,2019-05-10T15:40:41-04:00*
G04 #@! TF.ProjectId,Business Card,42757369-6e65-4737-9320-436172642e6b,rev?*
G04 #@! TF.SameCoordinates,Original*
G04 #@! TF.FileFunction,Soldermask,Bot*
G04 #@! TF.FilePolarity,Negative*
%FSLAX46Y46*%
G04 Gerber Fmt 4.6, Leading zero omitted, Abs format (unit mm)*
G04 Created by KiCad (PCBNEW (5.0.2)-1) date 5/10/2019 3:40:41 PM*
%MOMM*%
%LPD*%
G01*
G04 APERTURE LIST*
%ADD10C,0.100000*%
G04 APERTURE END LIST*
D10*
G36*
X180526000Y-93199000D02*
X180528402Y-93223386D01*
X180535515Y-93246835D01*
X180547066Y-93268446D01*
X180562612Y-93287388D01*
X180581554Y-93302934D01*
X180603165Y-93314485D01*
X180626614Y-93321598D01*
X180651000Y-93324000D01*
X180676000Y-93324000D01*
X180676000Y-93349000D01*
X180678402Y-93373386D01*
X180685515Y-93396835D01*
X180697066Y-93418446D01*
X180712612Y-93437388D01*
X180731554Y-93452934D01*
X180753165Y-93464485D01*
X180776614Y-93471598D01*
X180801000Y-93474000D01*
X181866000Y-93474000D01*
X181866000Y-96526000D01*
X180801000Y-96526000D01*
X180776614Y-96528402D01*
X180753165Y-96535515D01*
X180731554Y-96547066D01*
X180712612Y-96562612D01*
X180697066Y-96581554D01*
X180685515Y-96603165D01*
X180678402Y-96626614D01*
X180676000Y-96651000D01*
X180676000Y-96676000D01*
X180651000Y-96676000D01*
X180626614Y-96678402D01*
X180603165Y-96685515D01*
X180581554Y-96697066D01*
X180562612Y-96712612D01*
X180547066Y-96731554D01*
X180535515Y-96753165D01*
X180528402Y-96776614D01*
X180526000Y-96801000D01*
X180526000Y-97866000D01*
X177474000Y-97866000D01*
X177474000Y-96801000D01*
X177471598Y-96776614D01*
X177464485Y-96753165D01*
X177452934Y-96731554D01*
X177437388Y-96712612D01*
X177418446Y-96697066D01*
X177396835Y-96685515D01*
X177373386Y-96678402D01*
X177349000Y-96676000D01*
X177324000Y-96676000D01*
X177324000Y-96651000D01*
X177321598Y-96626614D01*
X177314485Y-96603165D01*
X177302934Y-96581554D01*
X177287388Y-96562612D01*
X177268446Y-96547066D01*
X177246835Y-96535515D01*
X177223386Y-96528402D01*
X177199000Y-96526000D01*
X176134000Y-96526000D01*
X176134000Y-93474000D01*
X177199000Y-93474000D01*
X177223386Y-93471598D01*
X177246835Y-93464485D01*
X177268446Y-93452934D01*
X177287388Y-93437388D01*
X177302934Y-93418446D01*
X177314485Y-93396835D01*
X177321598Y-93373386D01*
X177324000Y-93349000D01*
X177324000Y-93324000D01*
X177349000Y-93324000D01*
X177373386Y-93321598D01*
X177396835Y-93314485D01*
X177418446Y-93302934D01*
X177437388Y-93287388D01*
X177452934Y-93268446D01*
X177464485Y-93246835D01*
X177471598Y-93223386D01*
X177474000Y-93199000D01*
X177474000Y-92134000D01*
X180526000Y-92134000D01*
X180526000Y-93199000D01*
X180526000Y-93199000D01*
G37*
G36*
X162316000Y-97306000D02*
X160614000Y-97306000D01*
X160614000Y-96504000D01*
X162316000Y-96504000D01*
X162316000Y-97306000D01*
X162316000Y-97306000D01*
G37*
G36*
X157386000Y-97306000D02*
X155684000Y-97306000D01*
X155684000Y-96504000D01*
X157386000Y-96504000D01*
X157386000Y-97306000D01*
X157386000Y-97306000D01*
G37*
G36*
X162316000Y-96036000D02*
X160614000Y-96036000D01*
X160614000Y-95234000D01*
X162316000Y-95234000D01*
X162316000Y-96036000D01*
X162316000Y-96036000D01*
G37*
G36*
X157386000Y-96036000D02*
X155684000Y-96036000D01*
X155684000Y-95234000D01*
X157386000Y-95234000D01*
X157386000Y-96036000D01*
X157386000Y-96036000D01*
G37*
G36*
X157386000Y-94766000D02*
X155684000Y-94766000D01*
X155684000Y-93964000D01*
X157386000Y-93964000D01*
X157386000Y-94766000D01*
X157386000Y-94766000D01*
G37*
G36*
X162316000Y-94766000D02*
X160614000Y-94766000D01*
X160614000Y-93964000D01*
X162316000Y-93964000D01*
X162316000Y-94766000D01*
X162316000Y-94766000D01*
G37*
G36*
X157386000Y-93496000D02*
X155684000Y-93496000D01*
X155684000Y-92694000D01*
X157386000Y-92694000D01*
X157386000Y-93496000D01*
X157386000Y-93496000D01*
G37*
G36*
X162316000Y-93496000D02*
X160614000Y-93496000D01*
X160614000Y-92694000D01*
X162316000Y-92694000D01*
X162316000Y-93496000D01*
X162316000Y-93496000D01*
G37*
G36*
X183050240Y-86351100D02*
X181947480Y-86351100D01*
X181947480Y-84648900D01*
X183050240Y-84648900D01*
X183050240Y-86351100D01*
X183050240Y-86351100D01*
G37*
G36*
X186052520Y-86351100D02*
X184949760Y-86351100D01*
X184949760Y-84648900D01*
X186052520Y-84648900D01*
X186052520Y-86351100D01*
X186052520Y-86351100D01*
G37*
G36*
X175552140Y-86175840D02*
X174449380Y-86175840D01*
X174449380Y-84824160D01*
X175552140Y-84824160D01*
X175552140Y-86175840D01*
X175552140Y-86175840D01*
G37*
G36*
X173550620Y-86175840D02*
X172447860Y-86175840D01*
X172447860Y-84824160D01*
X173550620Y-84824160D01*
X173550620Y-86175840D01*
X173550620Y-86175840D01*
G37*
G36*
X163451050Y-85951050D02*
X162548950Y-85951050D01*
X162548950Y-85048950D01*
X163451050Y-85048950D01*
X163451050Y-85951050D01*
X163451050Y-85951050D01*
G37*
G36*
X165051250Y-85951050D02*
X164149150Y-85951050D01*
X164149150Y-85048950D01*
X165051250Y-85048950D01*
X165051250Y-85951050D01*
X165051250Y-85951050D01*
G37*
G36*
X153750390Y-85850720D02*
X153249610Y-85850720D01*
X153249610Y-85149280D01*
X153750390Y-85149280D01*
X153750390Y-85850720D01*
X153750390Y-85850720D01*
G37*
G36*
X154751150Y-85850720D02*
X154250370Y-85850720D01*
X154250370Y-85149280D01*
X154751150Y-85149280D01*
X154751150Y-85850720D01*
X154751150Y-85850720D01*
G37*
M02*
